<svg width="19" height="19" viewBox="0 0 19 19" fill="none" xmlns="http://www.w3.org/2000/svg">
<g clip-path="url(#clip0_164_1867)">
<path d="M10.2415 14.7791L18.6949 6.32179C18.8919 6.12484 19 5.8661 19 5.58805C19 5.31 18.8919 5.0474 18.6949 4.85431L18.0732 4.2287C17.6677 3.82321 17.0073 3.82321 16.6018 4.2287L9.5 11.3305L2.39431 4.22097C2.19736 4.02402 1.93862 3.91589 1.66057 3.91589C1.38252 3.91589 1.11992 4.02402 0.926828 4.22097L0.30508 4.84272C0.108129 5.03967 -6.04319e-08 5.29841 -7.25858e-08 5.57646C-8.47397e-08 5.85451 0.108129 6.11711 0.30508 6.3102L8.76626 14.7791C8.96321 14.9761 9.22581 15.0842 9.50386 15.0803C9.78191 15.0803 10.0445 14.9761 10.2415 14.7791Z" fill="#007BC2"/>
</g>
<defs>
<clipPath id="clip0_164_1867">
<rect width="19" height="19" fill="white" transform="translate(19) rotate(90)"/>
</clipPath>
</defs>
</svg>
