<svg width="13" height="19" viewBox="0 0 13 19" fill="none" xmlns="http://www.w3.org/2000/svg">
<path d="M1.22077 8.75854L9.67809 0.305081C9.87504 0.10813 10.1338 0 10.4118 0C10.6899 0 10.9525 0.10813 11.1456 0.305081L11.7712 0.926829C12.1767 1.33232 12.1767 1.99268 11.7712 2.39817L4.66935 9.5L11.7789 16.6057C11.9759 16.8026 12.084 17.0614 12.084 17.3394C12.084 17.6175 11.9759 17.8801 11.7789 18.0732L11.1572 18.6949C10.9602 18.8919 10.7015 19 10.4234 19C10.1454 19 9.88277 18.8919 9.68968 18.6949L1.22077 10.2337C1.02382 10.0368 0.915691 9.77419 0.919553 9.49614C0.919553 9.21809 1.02382 8.95549 1.22077 8.75854Z" fill="#007BC2"/>
</svg>
