<svg width="13" height="19" viewBox="0 0 13 19" fill="none" xmlns="http://www.w3.org/2000/svg">
<path d="M11.7792 8.75854L3.32191 0.305081C3.12496 0.10813 2.86622 0 2.58817 0C2.31012 0 2.04752 0.10813 1.85443 0.305081L1.22882 0.926829C0.823333 1.33232 0.823333 1.99268 1.22882 2.39817L8.33065 9.5L1.2211 16.6057C1.02415 16.8026 0.916016 17.0614 0.916016 17.3394C0.916016 17.6175 1.02415 17.8801 1.2211 18.0732L1.84284 18.6949C2.0398 18.8919 2.29854 19 2.57658 19C2.85463 19 3.11723 18.8919 3.31032 18.6949L11.7792 10.2337C11.9762 10.0368 12.0843 9.77419 12.0804 9.49614C12.0804 9.21809 11.9762 8.95549 11.7792 8.75854Z" fill="#007BC2"/>
</svg>
