<svg width="60" height="61" viewBox="0 0 60 61" fill="none" xmlns="http://www.w3.org/2000/svg">
<g clip-path="url(#clip0_144_51)">
<path d="M60 6.5V0.5H0V6.5H2V54.5H0V60.5H60V54.5H58V6.5H60ZM2 2.5H58V4.5H2V2.5ZM58 58.5H2V56.5H58V58.5ZM56 54.5H4V6.5H56V54.5Z" fill="white"/>
<path d="M29 31.5H6V52.5H29V31.5ZM27 50.5H8V33.5H27V50.5Z" fill="white"/>
<path d="M54 31.5H31V52.5H54V31.5ZM52 50.5H33V33.5H52V50.5Z" fill="white"/>
<path d="M54 8.5H31V29.5H54V8.5ZM52 27.5H33V10.5H52V27.5Z" fill="white"/>
<path d="M29 8.5H6V29.5H29V8.5ZM27 27.5H8V10.5H27V27.5Z" fill="white"/>
</g>
<defs>
<clipPath id="clip0_144_51">
<rect width="60" height="60" fill="white" transform="translate(0 0.5)"/>
</clipPath>
</defs>
</svg>
