<svg width="248" height="49" viewBox="0 0 248 49" fill="none" xmlns="http://www.w3.org/2000/svg">
<g clip-path="url(#clip0_2_3)">
<path fill-rule="evenodd" clip-rule="evenodd" d="M30.9456 16.9697L0.765699 6.25757C0.765699 6.25757 0.000266844 6.89393 0.000266844 7.95454C0.000266844 8.0606 0.000266844 8.48484 0.000266844 9.1212V9.43939C0.000266844 14.8485 0.000266844 33.7273 0.000266844 33.7273C0.000266844 33.7273 -0.218428 35.1061 1.20309 35.8485C2.62461 36.4848 8.74806 39.6667 8.74806 39.6667C8.74806 39.6667 9.62284 40.0909 10.4976 40.0909V23.2273C10.4976 23.2273 10.4976 22.3788 11.3724 22.2727C11.8098 22.2727 12.1378 22.3788 12.2472 22.5909C12.3565 22.803 27.4465 43.4848 27.4465 43.4848C27.4465 43.4848 28.6493 45.1818 30.7269 45.1818H30.8362L30.9456 16.9697Z" fill="white"/>
<path fill-rule="evenodd" clip-rule="evenodd" d="M0.765442 6.25757C0.765442 6.25757 1.31218 5.83333 2.40565 5.51514C3.49913 5.30302 27.3369 0.318175 27.3369 0.318175C27.3369 0.318175 30.3986 -0.53031 34.3351 0.318175C38.2716 1.16666 59.7037 5.6212 59.7037 5.6212C59.7037 5.6212 60.4691 5.83333 60.7972 6.15151L30.9453 16.9697L0.765442 6.25757Z" fill="#95988E"/>
<path fill-rule="evenodd" clip-rule="evenodd" d="M30.9453 16.9697L60.7972 6.25757C60.7972 6.25757 61.5626 6.89393 61.5626 7.95454C61.5626 9.1212 61.6719 33.6212 61.6719 33.6212C61.6719 33.6212 61.7813 35 60.3598 35.7424C58.9383 36.4848 52.8148 39.6667 52.8148 39.6667C52.8148 39.6667 52.1587 40.0909 51.1746 40.0909V23.2273C51.1746 23.2273 51.0652 22.3788 50.1905 22.2727C49.7531 22.2727 49.5344 22.4848 49.3157 22.697C49.2063 22.9091 34.1164 43.5909 34.1164 43.5909C34.1164 43.5909 33.0229 45.2879 30.9453 45.2879H30.836L30.9453 16.9697Z" fill="#00181B"/>
<path fill-rule="evenodd" clip-rule="evenodd" d="M22.5256 36.803L12.2469 22.697C12.2469 22.697 12.0282 22.3788 11.4815 22.3788C10.9347 22.3788 10.4973 22.697 10.4973 23.3333C10.4973 23.9697 10.4973 40.197 10.4973 40.197C10.4973 40.197 11.1534 40.303 12.3563 39.8788C13.5591 39.4545 22.5256 36.803 22.5256 36.803Z" fill="#00181B"/>
<path fill-rule="evenodd" clip-rule="evenodd" d="M39.2557 36.803L49.425 22.803C49.425 22.803 49.6437 22.3788 50.2998 22.3788C50.8466 22.3788 51.284 22.803 51.284 23.3333C51.284 23.8636 51.284 40.0909 51.284 40.0909C51.284 40.0909 50.4092 40.197 49.8624 39.9848C49.3157 39.7727 39.2557 36.803 39.2557 36.803Z" fill="#007BC2"/>
<path fill-rule="evenodd" clip-rule="evenodd" d="M160.631 12.0909H170.145V20.1515H160.631V12.0909ZM111.534 12.0909H121.048V20.1515H111.534V12.0909ZM228.427 7.74242V12.5151H234.988V24.9242H241.439V12.5151H248V7.74242H228.427ZM203.933 7.74242V24.8182H210.166L219.679 14.6364V24.8182H226.24V7.74242H219.46L210.384 17.3939V7.74242H203.933ZM194.529 12.5151H187.203C187.203 15.0606 187.203 17.6061 187.203 20.1515C187.203 22.803 185.891 24.9242 182.282 24.9242C181.298 24.9242 180.314 24.9242 179.22 24.9242H178.236V19.9394H179.22H180.642C180.642 17.5 180.642 14.9545 180.642 12.5151C180.642 9.86363 181.954 7.74242 185.563 7.74242H201.09V24.8182H194.638V12.5151H194.529ZM171.785 7.31818H158.991C155.492 7.31818 154.071 9.33333 154.071 12.0909V20.1515C154.071 22.803 155.383 24.9242 158.991 24.9242H171.785C175.284 24.9242 176.705 22.9091 176.705 20.1515V12.0909C176.705 9.43939 175.284 7.31818 171.785 7.31818ZM130.451 7.74242V24.8182H136.903V18.2424H144.776V24.8182H151.228V7.74242H144.776V13.1515H136.903V7.74242H130.451ZM122.688 7.31818H109.894C106.395 7.31818 104.974 9.33333 104.974 12.0909V20.1515C104.974 22.803 106.286 24.9242 109.894 24.9242H122.688C126.187 24.9242 127.608 22.9091 127.608 20.1515V12.0909C127.608 9.43939 126.296 7.31818 122.688 7.31818ZM93.2734 7.5303H102.349V24.9242H95.7883V14.3182L85.0723 28.7424L74.3563 14.3182V24.9242H67.9048V7.5303H76.9806L85.0723 19.0909L93.2734 7.5303Z" fill="#007BC2"/>
<path fill-rule="evenodd" clip-rule="evenodd" d="M125.859 32.7727V43.1666H129.795V39.2424H134.497V43.1666H138.434V32.7727H134.497V36.0606H129.795V32.7727H125.859Z" fill="#00181B"/>
<path fill-rule="evenodd" clip-rule="evenodd" d="M234.113 32.7727V43.2727H237.94L243.845 37.0151V43.2727H247.781V32.7727H243.626L238.049 38.7121V32.7727H234.113Z" fill="#00181B"/>
<path fill-rule="evenodd" clip-rule="evenodd" d="M149.915 35.7424V36.697H144.011V35.7424H149.915ZM153.524 39.4545V35.6364C153.524 33.9394 152.649 32.6667 150.462 32.6667H142.917C140.73 32.6667 139.855 33.9394 139.855 35.6364V40.4091C139.855 42.1061 140.73 43.3788 142.917 43.3788H153.414V40.4091H143.901V39.4545H153.524Z" fill="#00181B"/>
<path fill-rule="evenodd" clip-rule="evenodd" d="M158.991 40.197V35.6364H164.677V40.197H158.991ZM168.614 35.7424C168.614 34.1515 167.739 32.8788 165.661 32.8788H155.055L155.164 49H159.101V43.4848H165.989C167.958 43.4848 168.723 41.8939 168.723 40.303L168.614 35.7424Z" fill="#00181B"/>
<path fill-rule="evenodd" clip-rule="evenodd" d="M188.187 40.6212V39.8788H184.25V40.6212H178.783V35.7424H184.25V36.3788H188.187V35.7424C188.187 33.197 186 32.8788 185.344 32.8788C185.235 32.8788 185.235 32.8788 185.235 32.8788H177.799C175.612 32.8788 174.847 34.1515 174.847 35.7424V40.6212C174.847 42.2121 175.721 43.4848 177.799 43.4848H185.125C185.016 43.4848 188.187 43.4848 188.187 40.6212Z" fill="#00181B"/>
<path fill-rule="evenodd" clip-rule="evenodd" d="M189.718 32.7727H201.746V35.6363H197.81V43.2727H193.764V35.6363H189.718V32.7727Z" fill="#00181B"/>
<path fill-rule="evenodd" clip-rule="evenodd" d="M207.432 35.7424H213.118V40.303H207.432V35.7424ZM207.432 43.4848H214.43C215.305 43.4848 215.961 43.1666 216.508 42.5303C216.945 42 217.164 41.2576 217.164 40.303V35.7424C217.164 34.7879 216.945 34.1515 216.508 33.6212C215.961 33.0909 215.196 32.7727 214.212 32.7727H203.386V49H207.432V43.4848Z" fill="#00181B"/>
<path fill-rule="evenodd" clip-rule="evenodd" d="M222.631 35.7424V40.7273H228.536V35.7424H222.631ZM229.52 32.7727C230.614 32.7727 231.379 33.0909 231.817 33.6212C232.254 34.1515 232.473 34.7879 232.473 35.7424V40.7273C232.473 41.5757 232.254 42.3182 231.817 42.8485C231.27 43.3788 230.504 43.5909 229.52 43.5909H221.647C220.663 43.5909 219.898 43.3788 219.351 42.8485C218.804 42.3182 218.695 41.5757 218.695 40.7273V35.7424C218.695 34.7879 218.914 34.1515 219.351 33.6212C219.898 33.0909 220.663 32.7727 221.647 32.7727H229.52Z" fill="#00181B"/>
<path fill-rule="evenodd" clip-rule="evenodd" d="M101.365 43.3788V48.8939H97.4286L97.3192 32.7727H107.926C110.113 32.7727 110.878 34.0454 110.878 35.6363V40.1969C110.878 41.7879 110.113 43.3788 108.145 43.3788H101.365ZM101.256 35.6363V40.1969H106.942V35.6363H101.256Z" fill="#00181B"/>
<path fill-rule="evenodd" clip-rule="evenodd" d="M82.448 32.7727H92.6173C94.8042 32.7727 95.5696 34.0454 95.5696 35.6363V43.1666H85.291C82.776 43.1666 81.7919 41.6818 81.7919 39.7727C81.7919 37.8636 82.776 36.4848 85.291 36.4848H90.7584V39.2424H85.9471V40.1969H91.7425V35.5303H82.5573L82.448 32.7727Z" fill="#00181B"/>
<path fill-rule="evenodd" clip-rule="evenodd" d="M112.3 32.7727V35.6363H116.236L116.346 43.2727H120.282L120.173 35.6363H124.219V32.7727H112.3Z" fill="#00181B"/>
<path d="M77.418 32.7727H71.1852V35.8485H77.418V32.7727Z" fill="#00181B"/>
<path d="M71.6226 32.7727H67.6861V43.2727H71.6226V32.7727Z" fill="#00181B"/>
<path d="M80.4797 32.7727H76.5432V43.2727H80.4797V32.7727Z" fill="#00181B"/>
<path d="M243.735 30.2273H238.268V32.2424H243.735V30.2273Z" fill="#00181B"/>
</g>
<defs>
<clipPath id="clip0_2_3">
<rect width="248" height="49" fill="white"/>
</clipPath>
</defs>
</svg>
