<svg width="227" height="47" viewBox="0 0 227 47" fill="none" xmlns="http://www.w3.org/2000/svg">
<g clip-path="url(#clip0_25_276)">
<path fill-rule="evenodd" clip-rule="evenodd" d="M27.6 16.55L55.1 6.44995C55.1 6.44995 55.8 7.04995 55.8 8.04995C55.8 9.14995 55.9 32.35 55.9 32.35C55.9 32.35 56 33.65 54.7 34.35C53.4 35.05 47.8 38.05 47.8 38.05C47.8 38.05 47.2 38.45 46.3 38.45V22.55C46.3 22.55 46.2 21.75 45.4 21.65C45 21.65 44.8 21.85 44.6 22.05C44.5 22.25 30.6 41.8499 30.6 41.8499C30.6 41.8499 29.6 43.45 27.7 43.45H27.6V16.55Z" fill="white"/>
<path fill-rule="evenodd" clip-rule="evenodd" d="M0 6.44994C0 6.44994 0.5 6.04994 1.5 5.74994C2.5 5.54994 24.4 0.84994 24.4 0.84994C24.4 0.84994 27.2 0.0499403 30.8 0.84994C34 1.54994 49.8 4.94994 53.4 5.74994C53.7 5.84994 53.9 5.84994 54.2 6.14994L26.7 16.2499L0 6.44994Z" fill="white"/>
<path fill-rule="evenodd" clip-rule="evenodd" d="M20 35.3501L10.6 21.9501C10.6 21.9501 10.4 21.6501 9.9 21.6501C9.4 21.6501 9 21.9501 9 22.5501C9 23.1501 9 38.4501 9 38.4501C9 38.4501 9.6 38.5501 10.7 38.1501C11.7 37.9501 20 35.3501 20 35.3501Z" fill="white"/>
<path fill-rule="evenodd" clip-rule="evenodd" d="M146.7 11.95H155.4V19.65H146.7V11.95ZM101.6 11.95H110.3V19.65H101.6V11.95ZM208.9 7.94995V12.45H214.9V24.15H220.9V12.35H226.9V7.94995H208.9ZM186.3 7.94995V24.15H192.1L200.8 14.55V24.15H206.8V7.94995H200.6L192.3 17.15V7.94995H186.3ZM177.7 12.35H170.9C170.9 14.75 170.9 17.15 170.9 19.55C170.9 22.05 169.7 24.05 166.4 24.05C165.5 24.05 164.6 24.05 163.6 24.05H162.7V19.35H163.6H164.9C164.9 17.05 164.9 14.65 164.9 12.35C164.9 9.84995 166.1 7.84995 169.4 7.84995H183.6V24.05H177.6V12.35H177.7ZM156.9 7.44995H145.2C142 7.44995 140.7 9.44995 140.7 11.95V19.65C140.7 22.15 141.9 24.15 145.2 24.15H156.9C160.1 24.15 161.4 22.15 161.4 19.65V11.95C161.4 9.44995 160.1 7.44995 156.9 7.44995ZM119 7.94995V24.15H125V17.95H132.2V24.15H138.2V7.94995H132.2V13.05H125V7.94995H119ZM111.9 7.44995H100.2C97 7.44995 95.7 9.44995 95.7 11.95V19.65C95.7 22.15 96.9 24.15 100.2 24.15H111.9C115.1 24.15 116.4 22.15 116.4 19.65V11.95C116.4 9.44995 115.1 7.44995 111.9 7.44995ZM84.8 7.74995H93.1V24.15H87.1V14.15L77.3 27.75L67.5 14.15V24.15H61.5V7.74995H69.8L77.3 18.55L84.8 7.74995Z" fill="white"/>
<path fill-rule="evenodd" clip-rule="evenodd" d="M114.8 31.6499V41.4499H118.4V37.6499H122.8V41.4499H126.4V31.6499H122.8V34.7499H118.4V31.6499H114.8Z" fill="white"/>
<path fill-rule="evenodd" clip-rule="evenodd" d="M213.8 31.6499V41.5499H217.4L222.7 35.6499V41.5499H226.4V31.6499H222.6L217.5 37.2499V31.6499H213.8Z" fill="white"/>
<path fill-rule="evenodd" clip-rule="evenodd" d="M136.8 34.4501V35.35H131.4V34.4501H136.8ZM140.1 37.9501V34.35C140.1 32.75 139.3 31.55 137.3 31.55H130.4C128.4 31.55 127.6 32.75 127.6 34.35V38.85C127.6 40.45 128.4 41.65 130.4 41.65H140V38.85H131.3V37.9501H140.1Z" fill="white"/>
<path fill-rule="evenodd" clip-rule="evenodd" d="M145.2 38.6499V34.3499H150.4V38.6499H145.2ZM154 34.3499C154 32.8499 153.2 31.6499 151.3 31.6499H141.6L141.7 46.8499H145.3V41.6499H151.6C153.4 41.6499 154.1 40.1499 154.1 38.6499L154 34.3499Z" fill="white"/>
<path fill-rule="evenodd" clip-rule="evenodd" d="M171.8 39.05V38.35H168.2V39.05H163.2V34.45H168.2V35.05H171.8V34.45C171.8 32.05 169.8 31.75 169.2 31.75C169.1 31.75 169.1 31.75 169.1 31.75H162.3C160.3 31.75 159.6 32.95 159.6 34.45V39.05C159.6 40.55 160.4 41.75 162.3 41.75H169C169 41.65 171.8 41.75 171.8 39.05Z" fill="white"/>
<path fill-rule="evenodd" clip-rule="evenodd" d="M173.3 31.6499H184.3V34.3499H180.7V41.5499H177V34.3499H173.3V31.6499Z" fill="white"/>
<path fill-rule="evenodd" clip-rule="evenodd" d="M189.4 34.4499H194.6V38.7499H189.4V34.4499ZM189.4 41.7499H195.8C196.6 41.7499 197.2 41.4499 197.7 40.8499C198.1 40.3499 198.3 39.6499 198.3 38.7499V34.4499C198.3 33.5499 198.1 32.9499 197.7 32.4499C197.2 31.9499 196.5 31.6499 195.6 31.6499H185.8V46.9499H189.5V41.7499H189.4Z" fill="white"/>
<path fill-rule="evenodd" clip-rule="evenodd" d="M203.4 34.4499V39.1499H208.8V34.4499H203.4ZM209.6 31.6499C210.6 31.6499 211.3 31.9499 211.7 32.4499C212.1 32.9499 212.3 33.5499 212.3 34.4499V39.1499C212.3 39.9499 212.1 40.6499 211.7 41.1499C211.2 41.6499 210.5 41.8499 209.6 41.8499H202.4C201.5 41.8499 200.8 41.6499 200.3 41.1499C199.8 40.6499 199.7 39.9499 199.7 39.1499V34.4499C199.7 33.5499 199.9 32.9499 200.3 32.4499C200.8 31.9499 201.5 31.6499 202.4 31.6499H209.6Z" fill="white"/>
<path fill-rule="evenodd" clip-rule="evenodd" d="M92.4 41.6499V46.8499H88.8L88.7 31.6499H98.4C100.4 31.6499 101.1 32.8499 101.1 34.3499V38.6499C101.1 40.1499 100.4 41.6499 98.6 41.6499H92.4ZM92.4 34.3499V38.6499H97.6V34.3499H92.4Z" fill="white"/>
<path fill-rule="evenodd" clip-rule="evenodd" d="M75.2 31.6499H84.5C86.5 31.6499 87.2 32.8499 87.2 34.3499V41.4499H77.8C75.5 41.4499 74.6 40.0499 74.6 38.2499C74.6 36.4499 75.5 35.1499 77.8 35.1499H82.6V37.7499H78.2V38.6499H83.5V34.2499H75.1L75.2 31.6499Z" fill="white"/>
<path fill-rule="evenodd" clip-rule="evenodd" d="M102.4 31.6499V34.3499H106.1V41.4499H109.8L109.7 34.3499H113.3V31.6499H102.4Z" fill="white"/>
<path d="M70.6 31.6499H64.9V34.5499H70.6V31.6499Z" fill="white"/>
<path d="M65.3 31.6499H61.7V41.5499H65.3V31.6499Z" fill="white"/>
<path d="M73.3 31.6499H69.7V41.5499H73.3V31.6499Z" fill="white"/>
<path d="M222.6 29.25H217.6V31.15H222.6V29.25Z" fill="white"/>
</g>
<defs>
<clipPath id="clip0_25_276">
<rect width="226.8" height="46.4" fill="white" transform="translate(0 0.550049)"/>
</clipPath>
</defs>
</svg>
