<svg width="24" height="24" viewBox="0 0 24 24" fill="none" xmlns="http://www.w3.org/2000/svg">
<path d="M2.57129 8.67771L11.7033 13.4271C11.7949 13.4748 11.8966 13.4996 11.9999 13.4996C12.1031 13.4996 12.2048 13.4748 12.2964 13.4271L21.4284 8.67856V16.9286C21.4285 17.6401 21.1562 18.3247 20.6676 18.8419C20.1789 19.3591 19.5108 19.6697 18.8004 19.71L18.6427 19.7143H5.357C4.64546 19.7143 3.96086 19.4421 3.44366 18.9534C2.92646 18.4647 2.61586 17.7967 2.57557 17.0863L2.57129 16.9286V8.67771ZM5.357 4.28571H18.6427C19.3543 4.28566 20.0389 4.55789 20.5561 5.04657C21.0733 5.53524 21.3839 6.2033 21.4241 6.91371L21.4284 7.07142V7.22913L11.9999 12.132L2.57129 7.22913V7.07142C2.57124 6.35987 2.84348 5.67528 3.33215 5.15808C3.82082 4.64088 4.48888 4.33028 5.19929 4.28999L5.357 4.28571H18.6427H5.357Z" fill="#0080C6"/>
</svg>
