<svg width="31" height="40" viewBox="0 0 31 40" fill="none" xmlns="http://www.w3.org/2000/svg">
<path d="M15.5 0C7.22656 0 0.5 6.72656 0.5 15C0.5 26.0625 14.3359 39.2188 14.9297 39.7734C15.0938 39.9219 15.2969 40 15.5 40C15.7031 40 15.9141 39.9219 16.0703 39.7734C16.6641 39.2188 30.5 26.0625 30.5 15C30.5 6.72656 23.7734 0 15.5 0ZM15.5 23.3359C10.9062 23.3359 7.16406 19.5938 7.16406 15C7.16406 10.4062 10.9062 6.66406 15.5 6.66406C20.0938 6.66406 23.8359 10.4062 23.8359 15C23.8359 19.5938 20.0938 23.3359 15.5 23.3359Z" fill="#007AC2"/>
</svg>
