<svg width="16" height="17" viewBox="0 0 16 17" fill="none" xmlns="http://www.w3.org/2000/svg">
<path d="M15.3333 6.51636C15.3333 5.58302 15.1333 4.58302 14.7333 3.78302C14.4667 3.44969 14.0667 3.18302 13.6 3.11636C11.7333 2.91636 9.86665 2.84969 7.99999 2.91636C6.13332 2.91636 4.26665 2.98302 2.46665 3.11636C2.06665 3.18302 1.73332 3.31636 1.46665 3.58302C0.866652 4.11636 0.799986 5.11636 0.733319 5.84969C0.666652 7.31636 0.666652 8.71636 0.733319 10.183C0.733319 10.6497 0.799986 11.0497 0.933319 11.5164C0.999986 11.8497 1.19999 12.183 1.39999 12.4497C1.66665 12.7164 1.99999 12.9164 2.39999 12.983C3.86665 13.183 5.26665 13.2497 6.73332 13.183C9.06665 13.183 11.1333 13.183 13.5333 12.983C13.9333 12.9164 14.2667 12.7164 14.5333 12.4497C14.7333 12.2497 14.8667 12.0497 14.9333 11.783C15.2 11.0497 15.2667 10.3164 15.2667 9.51636C15.3333 9.18302 15.3333 6.91636 15.3333 6.51636ZM6.46665 9.98302V5.84969L10.4 7.91636C9.33332 8.51636 7.86665 9.18302 6.46665 9.98302Z" fill="#00181B"/>
</svg>
