<svg width="16" height="10" viewBox="0 0 16 10" fill="none" xmlns="http://www.w3.org/2000/svg">
<g clip-path="url(#clip0_25_305)">
<path d="M0.153101 1.81014C0.018553 1.455 -0.153369 1.08475 0.254012 0.884507C1.07999 0.873172 1.90596 0.861838 2.73568 0.850504C3.09447 0.861838 3.25892 1.13008 3.44953 1.50411C4.00641 2.58843 4.58571 3.66896 5.28461 4.6626C5.5126 4.98751 5.89755 5.11219 6.20029 4.59459C6.23392 3.89564 6.26756 3.1967 6.3012 2.49775C6.18907 1.68546 5.90877 1.20564 5.41916 1.15653C5.13885 0.880729 5.34067 0.654043 5.96856 0.533144C6.96646 0.317793 7.83729 0.416024 8.60346 0.514254C9.25004 0.555813 9.34348 0.997849 9.33226 1.50411C9.30984 2.42975 9.29115 3.35916 9.29115 4.28479C9.48176 5.22553 9.99005 4.84772 10.3264 4.43969C10.9282 3.57451 11.4514 2.73199 11.8887 1.78369C12.3409 0.808945 12.4642 0.880729 12.7819 0.876951C13.5406 0.873173 14.3778 0.835392 14.9833 0.85806C16.2465 0.782498 16.1008 1.34921 15.7457 1.94993C15.1328 2.99646 14.3442 3.94098 13.6415 4.9384C13.2155 5.524 13.2229 5.89048 13.6752 6.20784C14.3442 6.95212 15.0692 7.64729 15.6784 8.44069C16.34 9.30587 15.8541 9.54389 15.2374 9.60812C14.5012 9.60812 13.7649 9.60812 13.0286 9.60812C12.4007 9.61945 11.8326 9.46077 11.4327 8.78449C10.5096 7.54906 9.82187 7.20903 9.5453 7.9042C9.4257 8.21022 9.32479 8.62204 9.32853 9.02251C9.33226 9.58167 8.99963 9.62701 8.5474 9.64212C8.06153 9.64212 7.55698 9.76302 7.08606 9.64212C5.41916 9.2152 3.81953 8.42935 2.26102 5.72802C1.55838 4.56059 0.855741 3.28359 0.153101 1.81014Z" fill="#00181B"/>
</g>
<defs>
<clipPath id="clip0_25_305">
<rect width="16" height="9.29032" fill="white" transform="translate(0 0.404785)"/>
</clipPath>
</defs>
</svg>
