<svg width="16" height="17" viewBox="0 0 16 17" fill="none" xmlns="http://www.w3.org/2000/svg">
<g clip-path="url(#clip0_25_313)">
<path d="M7.74194 0.0498047C7.69032 3.30142 7.48387 5.10787 6.24516 6.34658C5.05806 7.53368 3.25161 7.79174 0 7.79174V8.30787C3.25161 8.35948 5.05806 8.56593 6.29677 9.80464C7.53548 11.0434 7.74194 12.8498 7.79355 16.1014H8.25806C8.30968 12.8498 8.51613 11.0434 9.75484 9.80464C10.9935 8.56593 12.7484 8.30787 16 8.30787V7.79174C12.7484 7.74013 10.9419 7.53368 9.70323 6.29497C8.51613 5.10787 8.25806 3.30142 8.25806 0.0498047H7.74194Z" fill="#00181B"/>
</g>
<defs>
<clipPath id="clip0_25_313">
<rect width="16" height="16" fill="white" transform="translate(0 0.0498047)"/>
</clipPath>
</defs>
</svg>
