<svg width="14" height="13" viewBox="0 0 14 13" fill="none" xmlns="http://www.w3.org/2000/svg">
<g clip-path="url(#clip0_25_307)">
<path d="M12.5557 0.748462L1.0092 5.45359C1.0092 5.45359 0.461424 5.64628 0.504556 6.00476C0.547688 6.36325 0.991948 6.52905 0.991948 6.52905L3.89474 7.54625L3.89905 7.55073V7.54625L10.8692 2.94419C10.8692 2.94419 11.2703 2.68877 11.2574 2.94419C11.2574 2.94419 11.3307 2.989 11.115 3.19961C10.8994 3.41022 5.63727 8.32148 5.63727 8.32148L5.62864 8.41558L10.3645 12.1886C11.1539 12.5471 11.4428 11.7988 11.4428 11.7988L13.5002 1.03077C13.5002 0.313798 12.5513 0.748462 12.5557 0.748462Z" fill="#00181B"/>
<path d="M7.43993 9.85864L5.56368 11.6376C5.56368 11.6376 5.41703 11.7541 5.25745 11.6824L5.61544 8.37988" fill="#00181B"/>
</g>
<defs>
<clipPath id="clip0_25_307">
<rect width="13" height="11.6687" fill="white" transform="translate(0.5 0.618652)"/>
</clipPath>
</defs>
</svg>
