<svg width="18" height="17" viewBox="0 0 18 17" fill="none" xmlns="http://www.w3.org/2000/svg">
<g clip-path="url(#clip0_36_341)">
<path d="M15.018 2.37418C13.42 0.877665 11.295 0.0498047 9.034 0.0498047C4.376 0.0498047 0.568 3.60005 0.568 7.97816C0.568 9.37916 0.959 10.7324 1.69 11.9423L0.5 16.0498L4.988 14.9513C6.229 15.5881 7.623 15.9224 9.034 15.9224C13.692 15.9224 17.5 12.3722 17.5 7.99408C17.5 5.86075 16.616 3.8707 15.018 2.37418ZM9.034 14.5692C7.776 14.5692 6.535 14.2508 5.447 13.6458L5.192 13.5025L2.54 14.1712L3.254 11.7354L3.084 11.4807C2.387 10.4299 2.013 9.21995 2.013 7.97816C1.996 4.34831 5.158 1.38712 9.034 1.38712C10.921 1.38712 12.672 2.0717 14.015 3.31349C15.341 4.55528 16.072 6.211 16.072 7.97816C16.072 11.608 12.91 14.5692 9.034 14.5692ZM12.893 9.63388C12.689 9.53836 11.635 9.06075 11.448 8.99707C11.261 8.93339 11.108 8.90155 10.972 9.09259C10.836 9.28364 10.428 9.72941 10.309 9.87269C10.19 10.0001 10.054 10.016 9.85 9.92045C9.646 9.82493 8.949 9.61796 8.15 8.93339C7.521 8.40801 7.096 7.75528 6.977 7.56423C6.858 7.37319 6.96 7.26174 7.062 7.16622C7.164 7.0707 7.266 6.92742 7.385 6.81597C7.487 6.70453 7.521 6.62493 7.589 6.48165C7.657 6.35428 7.623 6.22692 7.572 6.1314C7.521 6.03587 7.096 5.06473 6.926 4.66672C6.756 4.28463 6.586 4.33239 6.45 4.33239C6.331 4.33239 6.178 4.33239 6.042 4.33239C5.906 4.33239 5.668 4.38015 5.481 4.58712C5.294 4.77816 4.733 5.2717 4.733 6.24284C4.733 7.21398 5.498 8.15329 5.6 8.29657C5.702 8.42393 7.096 10.4299 9.221 11.2896C9.731 11.4966 10.122 11.608 10.428 11.7035C10.938 11.8468 11.397 11.8309 11.754 11.7831C12.162 11.7195 13.012 11.3055 13.182 10.8438C13.352 10.3821 13.352 9.98413 13.301 9.90453C13.25 9.77717 13.114 9.72941 12.893 9.63388Z" fill="#00181B"/>
</g>
<defs>
<clipPath id="clip0_36_341">
<rect width="17" height="16" fill="white" transform="translate(0.5 0.0498047)"/>
</clipPath>
</defs>
</svg>
