<svg width="16" height="19" viewBox="0 0 16 19" fill="none" xmlns="http://www.w3.org/2000/svg">
<g clip-path="url(#clip0_36_345)">
<path d="M14.656 10.1333C14.24 13.7833 11.728 14.0166 11.264 14.1833C11.072 14.2499 9.23201 14.7333 6.94401 14.5833L4.44801 17.4666V14.1499H4.43201C1.08801 13.1499 1.20001 9.43326 1.23201 7.48326C1.26401 5.53326 1.61601 3.93326 2.64001 2.84992C4.48001 1.08326 8.25601 1.34992 8.25601 1.34992C11.456 1.36659 12.976 2.38326 13.328 2.73326C14.496 3.79992 15.104 6.36659 14.656 10.1333ZM14.192 1.79992C13.776 1.39992 12.08 0.0832576 8.30401 0.0665909C8.30401 0.0665909 3.85601 -0.216742 1.68001 1.89992C0.480009 3.18326 0.0480094 5.06659 0.0160094 7.39992C-0.0319906 9.73326 -0.0799905 14.1166 3.87201 15.2999V17.1166C3.87201 17.1166 3.84001 17.8499 4.30401 17.9999C4.84801 18.1833 5.16801 17.6166 5.69601 17.0166C5.98401 16.6833 6.38401 16.1999 6.67201 15.8333C9.37601 16.0833 11.456 15.5166 11.696 15.4333C12.24 15.2499 15.328 14.8166 15.84 10.4499C16.352 5.94992 15.584 3.08326 14.192 1.79992Z" fill="#00181B"/>
<path d="M11.776 10.6833C11.776 10.6833 11.264 10.2333 11.024 10.0333C10.784 9.84996 10.416 9.59996 10.208 9.48329C9.84003 9.26662 9.45603 9.39996 9.29603 9.61662L8.97603 10.05C8.81603 10.2666 8.54403 10.2333 8.48003 10.2166C8.00003 10.0833 7.48803 9.78329 6.96003 9.24996C6.43203 8.71662 6.11203 8.14996 6.00003 7.58329L5.98403 7.54996C5.95203 7.31662 5.98403 7.19996 6.08003 7.03329L6.09603 7.01662C6.32003 6.79996 6.72003 6.54996 6.78403 6.29996C6.94403 5.86662 6.24003 4.96662 6.14403 4.81662C6.14403 4.81662 5.63203 4.11662 5.45603 3.98329C5.26403 3.81662 4.96003 3.71662 4.65603 3.91662H4.64003C3.76003 4.53329 3.45603 4.88329 3.53603 5.41662L3.58403 5.63329C4.03203 7.08329 4.88003 8.64996 6.16003 10.0333C7.42403 11.3833 8.80003 12.2 10.144 12.7666C10.496 12.8833 10.864 12.7833 11.232 12.45C11.52 12.1666 11.744 11.8666 11.904 11.55C12.08 11.2166 12.016 10.9 11.776 10.6833Z" fill="#00181B"/>
<path d="M9.68001 7.48315C9.63201 7.48315 9.58401 7.43315 9.58401 7.38315C9.56801 6.99982 9.47201 6.71649 9.29601 6.51649C9.12001 6.31649 8.86401 6.21649 8.52801 6.19982C8.48001 6.19982 8.43201 6.14982 8.43201 6.08315C8.43201 6.01649 8.48001 5.98315 8.54401 5.98315C8.94401 5.99982 9.24801 6.13315 9.45601 6.36649C9.66401 6.59982 9.77601 6.93315 9.80801 7.36649C9.79201 7.43315 9.74401 7.48315 9.68001 7.48315Z" fill="#00181B"/>
<path d="M10.672 7.84997C10.608 7.84997 10.576 7.79997 10.576 7.7333C10.592 7.01663 10.384 6.39997 9.968 5.91663C9.76 5.66663 9.504 5.4833 9.216 5.34997C8.928 5.21663 8.592 5.1333 8.208 5.09997C8.16 5.09997 8.112 5.04997 8.112 4.9833C8.112 4.91663 8.16 4.8833 8.224 4.8833C9.024 4.94997 9.664 5.24997 10.112 5.76663C10.56 6.29997 10.784 6.94997 10.768 7.7333C10.784 7.79997 10.736 7.84997 10.672 7.84997Z" fill="#00181B"/>
<path d="M11.696 8.26658C11.648 8.26658 11.6 8.21659 11.6 8.16658C11.6 7.53325 11.504 6.94992 11.328 6.44992C11.152 5.94992 10.88 5.51659 10.528 5.14992C10.176 4.78325 9.77599 4.49992 9.34399 4.31659C8.91199 4.13325 8.41599 4.03325 7.88799 4.03325C7.83999 4.03325 7.79199 3.98325 7.79199 3.93325C7.79199 3.86659 7.83999 3.83325 7.88799 3.83325C8.99199 3.84992 9.91999 4.23325 10.672 5.01658C11.04 5.39992 11.328 5.86658 11.52 6.39992C11.712 6.93325 11.808 7.53325 11.808 8.19992C11.808 8.21659 11.76 8.26658 11.696 8.26658Z" fill="#00181B"/>
</g>
<defs>
<clipPath id="clip0_36_345">
<rect width="16" height="18" fill="white" transform="translate(0 0.0498047)"/>
</clipPath>
</defs>
</svg>
